# xmcd
#
# Track frame offsets: 
#        150
#        19277
#        38614
#        73466
#        95763
#        140811
#        154989
#        168451
#        205509
#        240709
#
# Disc length: 3488 seconds
#
# Revision: 0
# Processed by: cddbd v1.5.2PL0 Copyright (c) Steve Scherf et al.
# Submitted via: ExactAudioCopy v1.0b1
#
DISCID=910d9e0a
DTITLE=Stevie Ray Vaughan - The Broadcast Collection 83-89 CD1
DYEAR=2017
DGENRE=Blues
TTITLE0=Testify
TTITLE1=So Excited
TTITLE2=Voodoo Chile (Slight Return)
TTITLE3=Pride And Joy
TTITLE4=Texas Flood
TTITLE5=Love Struck Baby
TTITLE6=Mary Had A Little Lamb
TTITLE7=Tin Pan Alley (Aka The Roughest Place In Town)
TTITLE8=Little Wing
TTITLE9=Third Stone From the Sun
EXTD=
EXTT0=
EXTT1=
EXTT2=
EXTT3=
EXTT4=
EXTT5=
EXTT6=
EXTT7=
EXTT8=
EXTT9=
PLAYORDER=
